<svg viewBox="0 0 32 32" fill="none" xmlns="http://www.w3.org/2000/svg">
<g clip-path="url(#clip0_1_3)">
<rect width="32" height="32" fill="#00FF00"/>
<path d="M2.84309 7.601C3.27509 7.601 3.64709 7.658 3.95909 7.772C4.27109 7.886 4.56509 8.057 4.84109 8.285L4.12109 9.158C3.74309 8.852 3.32909 8.699 2.87909 8.699C2.45309 8.699 2.10809 8.879 1.84409 9.239C1.58609 9.599 1.45709 10.142 1.45709 10.868C1.45709 11.594 1.58609 12.134 1.84409 12.488C2.10209 12.836 2.45609 13.01 2.90609 13.01C3.18209 13.01 3.41909 12.962 3.61709 12.866C3.81509 12.77 4.02809 12.632 4.25609 12.452L4.92209 13.307C4.37009 13.871 3.67109 14.153 2.82509 14.153C2.25509 14.153 1.75109 14.027 1.31309 13.775C0.881094 13.523 0.542094 13.151 0.296094 12.659C0.0500938 12.161 -0.0729062 11.564 -0.0729062 10.868C-0.0729062 10.19 0.0530938 9.605 0.305094 9.113C0.557094 8.621 0.905094 8.246 1.34909 7.988C1.79309 7.73 2.29109 7.601 2.84309 7.601ZM7.71758 9.059C8.44358 9.059 9.01058 9.29 9.41858 9.752C9.83258 10.208 10.0396 10.823 10.0396 11.597C10.0396 12.401 9.83558 13.028 9.42758 13.478C9.01958 13.928 8.44958 14.153 7.71758 14.153C6.98558 14.153 6.41558 13.931 6.00758 13.487C5.59958 13.037 5.39558 12.41 5.39558 11.606C5.39558 11.096 5.48558 10.652 5.66558 10.274C5.85158 9.89 6.11858 9.593 6.46658 9.383C6.82058 9.167 7.23758 9.059 7.71758 9.059ZM7.71758 10.112C7.42358 10.112 7.20758 10.232 7.06958 10.472C6.93158 10.706 6.86258 11.084 6.86258 11.606C6.86258 12.134 6.93158 12.518 7.06958 12.758C7.20758 12.992 7.42358 13.109 7.71758 13.109C8.01158 13.109 8.22758 12.989 8.36558 12.749C8.50358 12.509 8.57258 12.125 8.57258 11.597C8.57258 11.081 8.50358 10.706 8.36558 10.472C8.22758 10.232 8.01158 10.112 7.71758 10.112ZM15.1841 7.322V14H13.9241L13.8521 13.478C13.7081 13.682 13.5251 13.847 13.3031 13.973C13.0811 14.093 12.8231 14.153 12.5291 14.153C11.9531 14.153 11.5151 13.925 11.2151 13.469C10.9211 13.013 10.7741 12.389 10.7741 11.597C10.7741 11.105 10.8521 10.667 11.0081 10.283C11.1641 9.899 11.3861 9.599 11.6741 9.383C11.9621 9.167 12.2981 9.059 12.6821 9.059C13.1141 9.059 13.4741 9.209 13.7621 9.509V7.169L15.1841 7.322ZM13.0601 10.103C12.8021 10.103 12.6011 10.226 12.4571 10.472C12.3131 10.712 12.2411 11.09 12.2411 11.606C12.2411 12.158 12.3041 12.548 12.4301 12.776C12.5621 12.998 12.7451 13.109 12.9791 13.109C13.2791 13.109 13.5401 12.926 13.7621 12.56V10.499C13.6601 10.367 13.5521 10.268 13.4381 10.202C13.3301 10.136 13.2041 10.103 13.0601 10.103ZM18.5015 6.719C18.7475 6.719 18.9485 6.797 19.1045 6.953C19.2605 7.103 19.3385 7.292 19.3385 7.52C19.3385 7.754 19.2605 7.946 19.1045 8.096C18.9485 8.246 18.7475 8.321 18.5015 8.321C18.2555 8.321 18.0515 8.246 17.8895 8.096C17.7335 7.94 17.6555 7.748 17.6555 7.52C17.6555 7.292 17.7335 7.103 17.8895 6.953C18.0515 6.797 18.2555 6.719 18.5015 6.719ZM19.3565 13.028H20.5805V14H16.5845V13.028H17.9345V10.193H16.6295V9.221H19.3565V13.028ZM21.837 9.221H23.079L23.178 9.77C23.394 9.53 23.619 9.353 23.853 9.239C24.093 9.119 24.363 9.059 24.663 9.059C25.077 9.059 25.398 9.185 25.626 9.437C25.86 9.689 25.977 10.04 25.977 10.49V14H24.555V10.904C24.555 10.604 24.522 10.397 24.456 10.283C24.39 10.169 24.27 10.112 24.096 10.112C23.952 10.112 23.811 10.16 23.673 10.256C23.541 10.346 23.403 10.481 23.259 10.661V14H21.837V9.221ZM31.8055 9.5C31.4935 9.626 31.0345 9.689 30.4285 9.689C30.7405 9.827 30.9715 9.992 31.1215 10.184C31.2775 10.376 31.3555 10.622 31.3555 10.922C31.3555 11.228 31.2715 11.504 31.1035 11.75C30.9355 11.99 30.6985 12.179 30.3925 12.317C30.0865 12.455 29.7325 12.524 29.3305 12.524C29.1325 12.524 28.9465 12.506 28.7725 12.47C28.7245 12.494 28.6855 12.533 28.6555 12.587C28.6315 12.635 28.6195 12.686 28.6195 12.74C28.6195 12.83 28.6525 12.902 28.7185 12.956C28.7905 13.004 28.9315 13.028 29.1415 13.028H29.9335C30.2935 13.028 30.6115 13.088 30.8875 13.208C31.1635 13.328 31.3765 13.493 31.5265 13.703C31.6765 13.913 31.7515 14.15 31.7515 14.414C31.7515 14.912 31.5325 15.299 31.0945 15.575C30.6625 15.857 30.0295 15.998 29.1955 15.998C28.6015 15.998 28.1335 15.935 27.7915 15.809C27.4555 15.689 27.2185 15.518 27.0805 15.296C26.9485 15.074 26.8825 14.795 26.8825 14.459H28.1425C28.1425 14.609 28.1695 14.726 28.2235 14.81C28.2835 14.894 28.3915 14.957 28.5475 14.999C28.7035 15.041 28.9315 15.062 29.2315 15.062C29.6515 15.062 29.9395 15.014 30.0955 14.918C30.2575 14.822 30.3385 14.687 30.3385 14.513C30.3385 14.369 30.2785 14.252 30.1585 14.162C30.0445 14.078 29.8735 14.036 29.6455 14.036H28.8895C28.3975 14.036 28.0285 13.949 27.7825 13.775C27.5365 13.595 27.4135 13.367 27.4135 13.091C27.4135 12.911 27.4585 12.743 27.5485 12.587C27.6445 12.425 27.7765 12.29 27.9445 12.182C27.6445 12.02 27.4285 11.831 27.2965 11.615C27.1645 11.393 27.0985 11.126 27.0985 10.814C27.0985 10.46 27.1885 10.151 27.3685 9.887C27.5485 9.623 27.8005 9.422 28.1245 9.284C28.4485 9.14 28.8175 9.068 29.2315 9.068C29.7115 9.08 30.1195 9.035 30.4555 8.933C30.7915 8.825 31.1335 8.666 31.4815 8.456L31.8055 9.5ZM29.2675 9.995C29.0395 9.995 28.8595 10.067 28.7275 10.211C28.6015 10.355 28.5385 10.55 28.5385 10.796C28.5385 11.054 28.6045 11.255 28.7365 11.399C28.8685 11.543 29.0455 11.615 29.2675 11.615C29.5015 11.615 29.6815 11.546 29.8075 11.408C29.9335 11.264 29.9965 11.054 29.9965 10.778C29.9965 10.256 29.7535 9.995 29.2675 9.995Z" fill="white"/>
<path d="M10.2646 25H8.96858L8.89658 22.327C8.89058 22.195 8.88758 22.015 8.88758 21.787C8.88758 21.487 8.89658 21.196 8.91458 20.914C8.93258 20.626 8.95358 20.326 8.97758 20.014L8.27558 23.938H7.15958L6.39458 20.014C6.46058 20.704 6.49358 21.325 6.49358 21.877L6.48458 22.354L6.43958 25H5.17058L5.52158 18.763H7.04258L7.73558 22.795L8.39258 18.763H9.91358L10.2646 25ZM13.1141 20.059C13.8401 20.059 14.4071 20.29 14.8151 20.752C15.2291 21.208 15.4361 21.823 15.4361 22.597C15.4361 23.401 15.2321 24.028 14.8241 24.478C14.4161 24.928 13.8461 25.153 13.1141 25.153C12.3821 25.153 11.8121 24.931 11.4041 24.487C10.9961 24.037 10.7921 23.41 10.7921 22.606C10.7921 22.096 10.8821 21.652 11.0621 21.274C11.2481 20.89 11.5151 20.593 11.8631 20.383C12.2171 20.167 12.6341 20.059 13.1141 20.059ZM13.1141 21.112C12.8201 21.112 12.6041 21.232 12.4661 21.472C12.3281 21.706 12.2591 22.084 12.2591 22.606C12.2591 23.134 12.3281 23.518 12.4661 23.758C12.6041 23.992 12.8201 24.109 13.1141 24.109C13.4081 24.109 13.6241 23.989 13.7621 23.749C13.9001 23.509 13.9691 23.125 13.9691 22.597C13.9691 22.081 13.9001 21.706 13.7621 21.472C13.6241 21.232 13.4081 21.112 13.1141 21.112ZM19.3565 25H17.6825L16.0715 20.221H17.6105L18.5375 23.911L19.5095 20.221H20.9495L19.3565 25ZM23.898 17.719C24.144 17.719 24.345 17.797 24.501 17.953C24.657 18.103 24.735 18.292 24.735 18.52C24.735 18.754 24.657 18.946 24.501 19.096C24.345 19.246 24.144 19.321 23.898 19.321C23.652 19.321 23.448 19.246 23.286 19.096C23.13 18.94 23.052 18.748 23.052 18.52C23.052 18.292 23.13 18.103 23.286 17.953C23.448 17.797 23.652 17.719 23.898 17.719ZM24.753 24.028H25.977V25H21.981V24.028H23.331V21.193H22.026V20.221H24.753V24.028ZM28.4665 23.029C28.5565 23.755 28.9405 24.118 29.6185 24.118C30.0265 24.118 30.4345 23.986 30.8425 23.722L31.4095 24.496C31.1755 24.7 30.8965 24.862 30.5725 24.982C30.2485 25.096 29.8915 25.153 29.5015 25.153C28.9675 25.153 28.5145 25.048 28.1425 24.838C27.7705 24.622 27.4885 24.325 27.2965 23.947C27.1105 23.563 27.0175 23.119 27.0175 22.615C27.0175 22.135 27.1075 21.703 27.2875 21.319C27.4735 20.929 27.7405 20.623 28.0885 20.401C28.4425 20.173 28.8625 20.059 29.3485 20.059C29.8045 20.059 30.2005 20.158 30.5365 20.356C30.8725 20.548 31.1305 20.83 31.3105 21.202C31.4965 21.568 31.5895 22.006 31.5895 22.516C31.5895 22.714 31.5805 22.885 31.5625 23.029H28.4665ZM29.3485 21.013C29.0905 21.013 28.8835 21.109 28.7275 21.301C28.5715 21.487 28.4785 21.775 28.4485 22.165H30.2035C30.1915 21.397 29.9065 21.013 29.3485 21.013Z" fill="#040404"/>
</g>
<defs>
<clipPath id="clip0_1_3">
<rect width="32" height="32" fill="white"/>
</clipPath>
</defs>
</svg>
