<svg width="200" height="200" viewBox="0 0 1024 1024" version="1.1" xmlns="http://www.w3.org/2000/svg" xmlns:xlink="http://www.w3.org/1999/xlink"><path d="M222.134 263.217c78.87-18.853 164.257-2.828 233.778 37.942 51.532 31.108 96.386 71.642 143.597 108.563-26.079 17.675-51.924 35.585-78.318 52.789-48.233-36.37-92.694-80.833-151.06-100.864-53.574-18.46-116.104-21.21-167.008 6.834-52.16 27.65-87.98 84.446-87.902 143.833-1.57 59.623 33.386 117.44 85.074 146.426 55.696 32.05 126.787 27.809 183.426 0.472 70.148-34.33 118.303-98.901 161.508-161.745 46.425-72.113 87.744-147.368 132.992-220.188 9.898-18.46 33.15-28.358 53.024-20.816 18.461 5.891 26.394 24.98 35.194 40.454 69.912 126.08 140.69 251.61 211.468 377.141 11.076 20.11 27.259 41.006 20.424 65.515-5.184 30.243-45.405 40.612-68.342 23.566-97.565-72.27-195.6-144.07-293.01-216.732 24.118-20.19 51.455-36.135 77.142-54.203 33.778 25.059 67.556 50.197 101.492 75.02-32.442-60.173-67.164-119.01-100-178.947-62.764 97.329-113.983 204.398-198.9 285.23-60.959 60.566-145.01 101.965-232.442 97.173-135.586 6.206-258.367-116.026-257.188-250.903-5.656-117.36 81.068-229.772 195.05-256.56z" fill="currentColor"></path></svg>
