<svg viewBox="0 0 32 18" fill="none" xmlns="http://www.w3.org/2000/svg">
<path d="M29.873 5.88667C29.8757 5.908 29.8864 5.91333 29.9664 5.912H30.933C31.0927 5.91249 31.2504 5.877 31.3944 5.80818C31.5385 5.73935 31.6652 5.63894 31.7651 5.51443C31.865 5.38991 31.9356 5.24448 31.9716 5.08894C32.0076 4.93341 32.0081 4.77175 31.973 4.616C31.9164 4.35547 31.7636 4.1259 31.5451 3.97315C31.3266 3.82039 31.0585 3.7557 30.7944 3.792C30.5379 3.8255 30.3025 3.95163 30.1326 4.14662C29.9626 4.34162 29.8698 4.59202 29.8717 4.85067C29.8717 4.98533 29.869 5.73867 29.873 5.88667ZM14.5277 12.2973C14.257 12.2987 12.7237 12.3027 12.281 12.3013C11.9339 12.2989 11.5893 12.2422 11.2597 12.1333C11.2519 12.131 11.2435 12.1317 11.2362 12.1351C11.2288 12.1385 11.2229 12.1445 11.2197 12.152L10.2664 14.2173C10.2629 14.2248 10.2624 14.2333 10.2648 14.2412C10.2673 14.2491 10.2726 14.2558 10.2797 14.26C10.4277 14.34 10.7277 14.4253 10.9397 14.4253C11.8197 14.4387 12.6997 14.428 13.581 14.4253C13.5961 14.4253 13.6064 14.4187 13.6117 14.4053L14.561 12.3453C14.5636 12.3401 14.5648 12.3343 14.5644 12.3284C14.564 12.3226 14.5621 12.317 14.5589 12.3121C14.5556 12.3072 14.5512 12.3033 14.5459 12.3007C14.5407 12.2981 14.5349 12.297 14.529 12.2973H14.5277ZM0.635699 5.928C0.541032 5.928 0.534365 5.93067 0.534365 5.94133L0.521032 6.048C0.485032 6.57733 0.470365 6.708 0.209032 10.128C0.193032 10.448 0.163699 10.6467 0.0290321 10.9373C-0.00563454 11.0133 -0.0149679 10.9933 0.0330321 11.0867C0.0943655 11.2093 0.941032 13.1173 1.08237 13.4067C1.09303 13.4267 1.09703 13.4333 1.10503 13.4333C1.1157 13.4333 1.14903 13.3987 1.1677 13.3747C1.36237 13.124 1.52725 12.8547 1.66237 12.5667C2.07037 11.72 2.24903 10.8 2.31037 10.292C2.32903 10.1453 2.33837 9.99867 2.35037 9.852L2.62237 6.364L2.6517 5.97333C2.6557 5.93467 2.6517 5.92933 2.6117 5.928H0.635699ZM10.2397 10.9373C10.1198 10.6845 10.0583 10.4079 10.0597 10.128C10.0544 10.016 10.0184 9.608 9.74637 6.048C9.74571 6.01119 9.74124 5.97455 9.73303 5.93867C9.7277 5.924 9.6637 5.928 9.6317 5.928H7.65837C7.61837 5.92933 7.61303 5.93467 7.61837 5.97333L7.64637 6.364C7.7477 7.67333 7.85125 8.98267 7.95703 10.292C8.0237 10.8253 8.20503 11.7387 8.60637 12.5667C8.7437 12.8533 8.9037 13.1253 9.0997 13.3747C9.1197 13.3987 9.14903 13.4427 9.1637 13.44C9.19037 13.436 10.153 11.2507 10.2357 11.0867C10.2837 10.9933 10.2757 11.0133 10.2397 10.9373ZM15.3877 9.72H14.225C14.1968 9.72028 14.169 9.71343 14.1441 9.7001C14.1192 9.68677 14.0981 9.66739 14.0826 9.64373C14.0672 9.62008 14.058 9.59292 14.0559 9.56477C14.0537 9.53662 14.0587 9.50838 14.0704 9.48267L15.641 5.98267C15.6433 5.97759 15.6442 5.97203 15.6437 5.96651C15.6432 5.96098 15.6414 5.95566 15.6383 5.95103C15.6353 5.94639 15.6311 5.94259 15.6263 5.93997C15.6214 5.93735 15.6159 5.93598 15.6104 5.936L13.853 5.932C13.8199 5.93214 13.7872 5.92391 13.758 5.90807C13.7289 5.89223 13.7042 5.86929 13.6862 5.84138C13.6683 5.81347 13.6577 5.78148 13.6554 5.74838C13.6531 5.71528 13.6591 5.68213 13.673 5.652L14.841 3.04667C14.8432 3.04158 14.8442 3.03603 14.8437 3.03051C14.8432 3.02498 14.8414 3.01966 14.8383 3.01503C14.8353 3.01039 14.8311 3.00659 14.8263 3.00397C14.8214 3.00134 14.8159 2.99998 14.8104 3H12.7304C12.7153 3 12.7046 3.00667 12.6984 3.02L11.4637 5.77733C11.3504 6.00267 11.045 6.62267 10.9317 7.028C10.9064 7.11037 10.8974 7.19685 10.905 7.28267C10.9097 7.38568 10.9402 7.48587 10.9938 7.57396C11.0474 7.66205 11.1223 7.73521 11.2117 7.78667C11.4004 7.88806 11.6108 7.94249 11.825 7.94533H12.6117C12.6664 7.94533 11.6944 9.92133 11.4997 10.5747C11.4762 10.6487 11.4658 10.7264 11.469 10.804C11.4704 10.9113 11.4994 11.0165 11.5531 11.1094C11.6068 11.2023 11.6834 11.2799 11.7757 11.3347C11.9757 11.4573 12.2317 11.4947 12.409 11.4947L14.6224 11.4933C14.6375 11.4933 14.6477 11.4867 14.653 11.4733L15.4197 9.76667C15.422 9.76148 15.4229 9.7558 15.4223 9.75016C15.4218 9.74453 15.4199 9.73912 15.4167 9.73445C15.4135 9.72978 15.4091 9.726 15.404 9.72348C15.399 9.72095 15.3934 9.71975 15.3877 9.72ZM6.1477 3.13733H4.13303C4.12709 3.13696 4.12114 3.13783 4.11556 3.13989C4.10998 3.14195 4.10489 3.14515 4.10063 3.1493C4.09636 3.15344 4.093 3.15843 4.09077 3.16395C4.08855 3.16947 4.0875 3.17539 4.0877 3.18133C4.0877 4.57867 4.07437 6.908 4.07437 12.2867C4.07437 12.6707 3.7157 12.636 3.70103 12.636H2.71437C2.66103 12.6373 2.6557 12.6413 2.66103 12.6987C2.66237 12.748 3.28103 14.1173 3.40103 14.3827C3.41437 14.4093 3.44103 14.4267 3.46903 14.4267C3.67837 14.4307 4.4917 14.4387 4.7197 14.408C4.9237 14.3813 5.1197 14.328 5.3037 14.232C5.7037 14.024 5.95703 13.6733 6.09703 13.212C6.16637 12.9827 6.19703 12.7413 6.19703 12.5013C6.1997 9.39467 6.19659 6.28756 6.1877 3.18C6.18809 3.1743 6.18726 3.16857 6.18526 3.16322C6.18325 3.15786 6.18012 3.153 6.17608 3.14895C6.17203 3.14491 6.16717 3.14178 6.16182 3.13978C6.15646 3.13777 6.15074 3.13694 6.14503 3.13733H6.1477ZM21.8597 12.332C21.8579 12.3142 21.8473 12.3044 21.8277 12.3027H19.8744C19.8104 12.3013 19.809 12.3 19.8077 12.2373V6.024C19.8077 5.928 19.801 5.93067 19.901 5.93067H21.0517C21.1584 5.93067 21.1517 5.936 21.1517 5.832V3.90533C21.1517 3.796 21.1597 3.804 21.045 3.804H16.3784C16.293 3.804 16.2784 3.796 16.2784 3.90133V5.828C16.2784 5.93867 16.2704 5.93067 16.385 5.93067H17.5237C17.6237 5.93067 17.617 5.92533 17.617 6.024V12.1893C17.617 12.316 17.6277 12.3013 17.5037 12.3013C17.0104 12.3013 16.0237 12.2987 15.765 12.3013C15.701 12.3027 15.685 12.3413 15.685 12.3413L14.7557 14.3667C14.7557 14.3667 14.737 14.4 14.745 14.4147C14.753 14.4293 14.7624 14.4253 14.8224 14.4253C17.153 14.428 19.4833 14.4289 21.813 14.428C21.853 14.4267 21.8584 14.42 21.8597 14.384V12.332ZM27.429 7.75867C27.429 7.77733 27.4201 7.788 27.4024 7.79067C26.941 7.79867 26.4797 7.796 26.0197 7.796C26.001 7.79333 25.9913 7.78267 25.9904 7.764C25.985 7.18533 25.9806 6.60622 25.977 6.02667C25.977 5.93067 25.969 5.932 26.0704 5.93333L27.0477 5.92933C27.1024 5.92933 27.1557 5.932 27.2077 5.94933C27.3317 5.98267 27.421 6.092 27.4277 6.22133C27.4357 6.796 27.4304 7.75867 27.429 7.75867ZM30.989 8.084C30.6254 7.89381 30.222 7.79238 29.8117 7.788H29.5717C29.5184 7.78667 29.5184 7.784 29.5157 7.73467V6.328C29.5166 6.152 29.5055 5.97689 29.4824 5.80267C29.4511 5.55803 29.3823 5.31967 29.2784 5.096C29.0895 4.68992 28.7723 4.35726 28.3757 4.14933C27.9648 3.9305 27.5078 3.81258 27.0424 3.80533C26.8384 3.80133 26.2864 3.80533 26.0824 3.80533C25.989 3.80533 25.9917 3.81067 25.9917 3.71867V3.06133C25.9917 3.02 25.9784 3.00667 25.9304 3.00933H23.9064C23.9064 3.00933 23.885 3.00933 23.8757 3.01867C23.8686 3.02578 23.865 3.036 23.865 3.04933V3.77733C23.8544 3.82533 23.789 3.79733 23.7557 3.80667H22.489C22.4597 3.80933 22.4517 3.81733 22.449 3.84933V5.824C22.449 5.944 22.4437 5.93333 22.5584 5.93333H23.7757C23.885 5.93333 23.8717 6.104 23.8717 6.104V7.63467C23.8717 7.63467 23.8757 7.79067 23.7917 7.79067H21.8157C21.725 7.79067 21.7357 7.9 21.7357 7.9V9.82667C21.7357 9.82667 21.7224 9.91733 21.821 9.91733H23.7637C23.873 9.91733 23.865 9.90933 23.865 10.0227V14.3227C23.865 14.44 23.8557 14.4307 23.9744 14.4307H25.881C26.001 14.4307 25.9904 14.44 25.9904 14.324V9.964C25.9904 9.92533 25.9984 9.91733 26.0344 9.91733L29.1317 9.91333C29.2604 9.91441 29.3875 9.9421 29.505 9.99467C29.6109 10.0414 29.7014 10.1172 29.7661 10.2132C29.8307 10.3093 29.8669 10.4216 29.8704 10.5373C29.881 11.064 29.8744 11.5907 29.8744 12.1173C29.8744 12.4627 29.7317 12.6067 29.4344 12.6067H27.8104C27.7797 12.6093 27.7717 12.6173 27.773 12.6507C28.0184 13.2329 28.2717 13.812 28.533 14.388C28.5383 14.3978 28.546 14.4061 28.5553 14.4121C28.5646 14.4182 28.5753 14.4218 28.5864 14.4227C28.813 14.4293 29.0397 14.4253 29.2664 14.4267C29.4664 14.424 29.9557 14.432 30.1544 14.4133C30.3387 14.3989 30.521 14.3654 30.6984 14.3133C31.485 14.0733 31.9984 13.3827 31.9997 12.5627V9.92133C32.0006 9.75156 31.9855 9.58267 31.9544 9.41467C31.9544 9.51867 31.9157 8.56 30.989 8.084Z" fill="currentColor"/>
</svg>
